<svg width="29" height="26" viewBox="0 0 29 26" fill="none" xmlns="http://www.w3.org/2000/svg">
<path d="M4.8153 5.348C4.5273 5.348 4.2513 5.432 3.8313 5.66L1.8033 6.788C1.4313 6.992 1.3833 7.412 1.5633 7.736C1.7553 8.084 2.1393 8.264 2.5353 8.036L4.0833 7.148V13.364C4.0833 13.82 4.4433 14.024 4.8513 14.024C5.2593 14.024 5.6193 13.82 5.6193 13.364V6.008C5.6193 5.552 5.2713 5.348 4.8153 5.348Z" fill="#D2D2D2"/>
<path d="M22.646 15.7155C23.6264 14.9442 24.342 13.8864 24.6933 12.6894C25.0445 11.4925 25.014 10.2158 24.6058 9.03696C24.1977 7.85817 23.4323 6.83589 22.4161 6.11235C21.3999 5.38881 20.1835 5 18.936 5C17.6886 5 16.4721 5.38881 15.456 6.11235C14.4398 6.83589 13.6744 7.85817 13.2662 9.03696C12.8581 10.2158 12.8275 11.4925 13.1788 12.6894C13.53 13.8864 14.2456 14.9442 15.226 15.7155C13.5461 16.3885 12.0803 17.5048 10.9849 18.9454C9.88953 20.386 9.20559 22.0968 9.00603 23.8955C8.99159 24.0268 9.00315 24.1597 9.04006 24.2866C9.07697 24.4134 9.1385 24.5317 9.22114 24.6348C9.38805 24.843 9.63082 24.9763 9.89603 25.0055C10.1612 25.0347 10.4272 24.9573 10.6354 24.7904C10.8435 24.6235 10.9769 24.3807 11.006 24.1155C11.2256 22.1607 12.1577 20.3553 13.6243 19.0443C15.0908 17.7333 16.9889 17.0085 18.956 17.0085C20.9231 17.0085 22.8213 17.7333 24.2878 19.0443C25.7543 20.3553 26.6864 22.1607 26.906 24.1155C26.9332 24.3612 27.0505 24.5882 27.2351 24.7525C27.4198 24.9169 27.6588 25.007 27.906 25.0055H28.016C28.2782 24.9753 28.5178 24.8428 28.6826 24.6367C28.8474 24.4307 28.9241 24.1679 28.896 23.9055C28.6955 22.1017 28.0079 20.3865 26.9069 18.9437C25.8059 17.5009 24.3329 16.385 22.646 15.7155ZM18.936 15.0055C18.1449 15.0055 17.3715 14.7709 16.7138 14.3314C16.056 13.8918 15.5433 13.2671 15.2405 12.5362C14.9378 11.8053 14.8585 11.0011 15.0129 10.2251C15.1672 9.44921 15.5482 8.73648 16.1076 8.17707C16.667 7.61766 17.3797 7.2367 18.1557 7.08235C18.9316 6.92801 19.7359 7.00723 20.4668 7.30998C21.1977 7.61273 21.8224 8.12542 22.2619 8.78321C22.7014 9.44101 22.936 10.2144 22.936 11.0055C22.936 12.0664 22.5146 13.0838 21.7645 13.8339C21.0143 14.5841 19.9969 15.0055 18.936 15.0055Z" fill="#D2D2D2"/>
</svg>
